<svg xmlns="http://www.w3.org/2000/svg" width="1388.413818359375" height="1339.368408203125" viewBox="-704.27490234375 -689.9660034179688 1388.413818359375 1339.368408203125"><title>Neo4j Graph Visualization</title><desc>Created using Neo4j (http://www.neo4j.com/)</desc><g class="layer relationships"><g class="relationship" transform="translate(-49.875188977696894 533.143627298178) rotate(368.641692167653)"><path class="b-outline" fill="#A5ABB6" stroke="none" d="M 25 0.5 L 38.54633697127632 0.5 L 38.54633697127632 -0.5 L 25 -0.5 Z M 100.55805572127632 0.5 L 114.10439269255264 0.5 L 114.10439269255264 3.5 L 121.10439269255264 0 L 114.10439269255264 -3.5 L 114.10439269255264 -0.5 L 100.55805572127632 -0.5 Z"/><text text-anchor="middle" pointer-events="none" font-size="8px" fill="#000000" x="69.55219634627632" y="3" font-family="Helvetica Neue, Helvetica, Arial, sans-serif">DIRECTED_BY</text></g><g class="relationship" transform="translate(-42.129483874475795 -166.20796709688935) rotate(457.6266041421418)"><path class="b-outline" fill="#A5ABB6" stroke="none" d="M 25 0.5 L 36.89858879729901 0.5 L 36.89858879729901 -0.5 L 25 -0.5 Z M 98.91030754729901 0.5 L 110.80889634459803 0.5 L 110.80889634459803 3.5 L 117.80889634459803 0 L 110.80889634459803 -3.5 L 110.80889634459803 -0.5 L 98.91030754729901 -0.5 Z"/><text text-anchor="middle" pointer-events="none" font-size="8px" fill="#000000" x="67.90444817229901" y="3" transform="rotate(180 67.90444817229901 0)" font-family="Helvetica Neue, Helvetica, Arial, sans-serif">DIRECTED_BY</text></g><g class="relationship" transform="translate(144.71906768830476 469.19694718369055) rotate(381.1934644517492)"><path class="b-outline" fill="#A5ABB6" stroke="none" d="M 25 0.5 L 46.96733514538698 0.5 L 46.96733514538698 -0.5 L 25 -0.5 Z M 108.97905389538698 0.5 L 130.94638904077397 0.5 L 130.94638904077397 3.5 L 137.94638904077397 0 L 130.94638904077397 -3.5 L 130.94638904077397 -0.5 L 108.97905389538698 -0.5 Z"/><text text-anchor="middle" pointer-events="none" font-size="8px" fill="#000000" x="77.97319452038698" y="3" font-family="Helvetica Neue, Helvetica, Arial, sans-serif">DIRECTED_BY</text></g><g class="relationship" transform="translate(629.4800535187567 308.5385822457262) rotate(535.0010098713565)"><path class="b-outline" fill="#A5ABB6" stroke="none" d="M 25 0.5 L 35.73560716016412 0.5 L 35.73560716016412 -0.5 L 25 -0.5 Z M 97.74732591016412 0.5 L 108.48293307032824 0.5 L 108.48293307032824 3.5 L 115.48293307032824 0 L 108.48293307032824 -3.5 L 108.48293307032824 -0.5 L 97.74732591016412 -0.5 Z"/><text text-anchor="middle" pointer-events="none" font-size="8px" fill="#000000" x="66.74146653516412" y="3" transform="rotate(180 66.74146653516412 0)" font-family="Helvetica Neue, Helvetica, Arial, sans-serif">DIRECTED_BY</text></g><g class="relationship" transform="translate(241.0005094282253 445.6555230867902) rotate(503.2257577129631)"><path class="b-outline" fill="#A5ABB6" stroke="none" d="M 25 0.5 L 56.8985582061688 0.5 L 56.8985582061688 -0.5 L 25 -0.5 Z M 118.9102769561688 0.5 L 150.8088351623376 0.5 L 150.8088351623376 3.5 L 157.8088351623376 0 L 150.8088351623376 -3.5 L 150.8088351623376 -0.5 L 118.9102769561688 -0.5 Z"/><text text-anchor="middle" pointer-events="none" font-size="8px" fill="#000000" x="87.9044175811688" y="3" transform="rotate(180 87.9044175811688 0)" font-family="Helvetica Neue, Helvetica, Arial, sans-serif">DIRECTED_BY</text></g><g class="relationship" transform="translate(180.66334956131166 118.27885334631088) rotate(399.34144348981795)"><path class="b-outline" fill="#A5ABB6" stroke="none" d="M 25 0.5 L 38.19283162197743 0.5 L 38.19283162197743 -0.5 L 25 -0.5 Z M 100.20455037197743 0.5 L 113.39738199395487 0.5 L 113.39738199395487 3.5 L 120.39738199395487 0 L 113.39738199395487 -3.5 L 113.39738199395487 -0.5 L 100.20455037197743 -0.5 Z"/><text text-anchor="middle" pointer-events="none" font-size="8px" fill="#000000" x="69.19869099697743" y="3" font-family="Helvetica Neue, Helvetica, Arial, sans-serif">DIRECTED_BY</text></g><g class="relationship" transform="translate(648.8644883397257 27.091544506512616) rotate(272.53151831941125)"><path class="b-outline" fill="#A5ABB6" stroke="none" d="M 25 0.5 L 36.52148002043363 0.5 L 36.52148002043363 -0.5 L 25 -0.5 Z M 98.53319877043363 0.5 L 110.05467879086726 0.5 L 110.05467879086726 3.5 L 117.05467879086726 0 L 110.05467879086726 -3.5 L 110.05467879086726 -0.5 L 98.53319877043363 -0.5 Z"/><text text-anchor="middle" pointer-events="none" font-size="8px" fill="#000000" x="67.52733939543363" y="3" font-family="Helvetica Neue, Helvetica, Arial, sans-serif">DIRECTED_BY</text></g><g class="relationship" transform="translate(180.66334956131166 118.27885334631088) rotate(353.5592999567534)"><path class="b-outline" fill="#A5ABB6" stroke="none" d="M 25 0.5 L 39.45698702854081 0.5 L 39.45698702854081 -0.5 L 25 -0.5 Z M 101.46870577854081 0.5 L 115.92569280708162 0.5 L 115.92569280708162 3.5 L 122.92569280708162 0 L 115.92569280708162 -3.5 L 115.92569280708162 -0.5 L 101.46870577854081 -0.5 Z"/><text text-anchor="middle" pointer-events="none" font-size="8px" fill="#000000" x="70.46284640354081" y="3" font-family="Helvetica Neue, Helvetica, Arial, sans-serif">DIRECTED_BY</text></g><g class="relationship" transform="translate(544.3013247770441 -278.29349911817496) rotate(269.24208402474545)"><path class="b-outline" fill="#A5ABB6" stroke="none" d="M 25 0.5 L 36.87722558522445 0.5 L 36.87722558522445 -0.5 L 25 -0.5 Z M 98.88894433522445 0.5 L 110.7661699204489 0.5 L 110.7661699204489 3.5 L 117.7661699204489 0 L 110.7661699204489 -3.5 L 110.7661699204489 -0.5 L 98.88894433522445 -0.5 Z"/><text text-anchor="middle" pointer-events="none" font-size="8px" fill="#000000" x="67.88308496022445" y="3" transform="rotate(180 67.88308496022445 0)" font-family="Helvetica Neue, Helvetica, Arial, sans-serif">DIRECTED_BY</text></g><g class="relationship" transform="translate(348.3512275832759 -333.2127694743215) rotate(274.44410623216635)"><path class="b-outline" fill="#A5ABB6" stroke="none" d="M 25 0.5 L 37.63311069657868 0.5 L 37.63311069657868 -0.5 L 25 -0.5 Z M 99.64482944657868 0.5 L 112.27794014315737 0.5 L 112.27794014315737 3.5 L 119.27794014315737 0 L 112.27794014315737 -3.5 L 112.27794014315737 -0.5 L 99.64482944657868 -0.5 Z"/><text text-anchor="middle" pointer-events="none" font-size="8px" fill="#000000" x="68.63897007157868" y="3" font-family="Helvetica Neue, Helvetica, Arial, sans-serif">DIRECTED_BY</text></g><g class="relationship" transform="translate(138.15770063773002 -403.5189226681701) rotate(482.04851658338896)"><path class="b-outline" fill="#A5ABB6" stroke="none" d="M 25 0.5 L 40.65131825793465 0.5 L 40.65131825793465 -0.5 L 25 -0.5 Z M 102.66303700793465 0.5 L 118.3143552658693 0.5 L 118.3143552658693 3.5 L 125.3143552658693 0 L 118.3143552658693 -3.5 L 118.3143552658693 -0.5 L 102.66303700793465 -0.5 Z"/><text text-anchor="middle" pointer-events="none" font-size="8px" fill="#000000" x="71.65717763293465" y="3" transform="rotate(180 71.65717763293465 0)" font-family="Helvetica Neue, Helvetica, Arial, sans-serif">DIRECTED_BY</text></g><g class="relationship" transform="translate(34.371548664470126 -537.8908548819118) rotate(354.77732046659014)"><path class="b-outline" fill="#A5ABB6" stroke="none" d="M 25 0.5 L 36.52544001786151 0.5 L 36.52544001786151 -0.5 L 25 -0.5 Z M 98.53715876786151 0.5 L 110.06259878572303 0.5 L 110.06259878572303 3.5 L 117.06259878572303 0 L 110.06259878572303 -3.5 L 110.06259878572303 -0.5 L 98.53715876786151 -0.5 Z"/><text text-anchor="middle" pointer-events="none" font-size="8px" fill="#000000" x="67.53129939286151" y="3" font-family="Helvetica Neue, Helvetica, Arial, sans-serif">DIRECTED_BY</text></g><g class="relationship" transform="translate(180.66334956131166 118.27885334631088) rotate(312.6207494949701)"><path class="b-outline" fill="#A5ABB6" stroke="none" d="M 25 0.5 L 39.48972242275491 0.5 L 39.48972242275491 -0.5 L 25 -0.5 Z M 101.50144117275491 0.5 L 115.99116359550982 0.5 L 115.99116359550982 3.5 L 122.99116359550982 0 L 115.99116359550982 -3.5 L 115.99116359550982 -0.5 L 101.50144117275491 -0.5 Z"/><text text-anchor="middle" pointer-events="none" font-size="8px" fill="#000000" x="70.49558179775491" y="3" font-family="Helvetica Neue, Helvetica, Arial, sans-serif">DIRECTED_BY</text></g><g class="relationship" transform="translate(-91.54868520298591 -653.5398500937354) rotate(182.97966706702312)"><path class="b-outline" fill="#A5ABB6" stroke="none" d="M 25 0.5 L 36.92468081183205 0.5 L 36.92468081183205 -0.5 L 25 -0.5 Z M 98.93639956183205 0.5 L 110.8610803736641 0.5 L 110.8610803736641 3.5 L 117.8610803736641 0 L 110.8610803736641 -3.5 L 110.8610803736641 -0.5 L 98.93639956183205 -0.5 Z"/><text text-anchor="middle" pointer-events="none" font-size="8px" fill="#000000" x="67.93054018683205" y="3" transform="rotate(180 67.93054018683205 0)" font-family="Helvetica Neue, Helvetica, Arial, sans-serif">DIRECTED_BY</text></g><g class="relationship" transform="translate(-179.68335150604693 -317.1098841845776) rotate(245.7372729875832)"><path class="b-outline" fill="#A5ABB6" stroke="none" d="M 25 0.5 L 37.043449581068614 0.5 L 37.043449581068614 -0.5 L 25 -0.5 Z M 99.05516833106861 0.5 L 111.09861791213723 0.5 L 111.09861791213723 3.5 L 118.09861791213723 0 L 111.09861791213723 -3.5 L 111.09861791213723 -0.5 L 99.05516833106861 -0.5 Z"/><text text-anchor="middle" pointer-events="none" font-size="8px" fill="#000000" x="68.04930895606861" y="3" transform="rotate(180 68.04930895606861 0)" font-family="Helvetica Neue, Helvetica, Arial, sans-serif">DIRECTED_BY</text></g><g class="relationship" transform="translate(-442.3429920730082 -424.8644415610946) rotate(419.14120413858353)"><path class="b-outline" fill="#A5ABB6" stroke="none" d="M 25 0.5 L 37.825259784158646 0.5 L 37.825259784158646 -0.5 L 25 -0.5 Z M 99.83697853415865 0.5 L 112.66223831831729 0.5 L 112.66223831831729 3.5 L 119.66223831831729 0 L 112.66223831831729 -3.5 L 112.66223831831729 -0.5 L 99.83697853415865 -0.5 Z"/><text text-anchor="middle" pointer-events="none" font-size="8px" fill="#000000" x="68.83111915915865" y="3" font-family="Helvetica Neue, Helvetica, Arial, sans-serif">DIRECTED_BY</text></g><g class="relationship" transform="translate(-516.2597672512159 -226.70451112220954) rotate(188.00514995675184)"><path class="b-outline" fill="#A5ABB6" stroke="none" d="M 25 0.5 L 36.3958040938043 0.5 L 36.3958040938043 -0.5 L 25 -0.5 Z M 98.4075228438043 0.5 L 109.8033269376086 0.5 L 109.8033269376086 3.5 L 116.8033269376086 0 L 109.8033269376086 -3.5 L 109.8033269376086 -0.5 L 98.4075228438043 -0.5 Z"/><text text-anchor="middle" pointer-events="none" font-size="8px" fill="#000000" x="67.4016634688043" y="3" transform="rotate(180 67.4016634688043 0)" font-family="Helvetica Neue, Helvetica, Arial, sans-serif">DIRECTED_BY</text></g><g class="relationship" transform="translate(180.66334956131166 118.27885334631088) rotate(267.4541677256849)"><path class="b-outline" fill="#A5ABB6" stroke="none" d="M 25 0.5 L 38.34718288724383 0.5 L 38.34718288724383 -0.5 L 25 -0.5 Z M 100.35890163724383 0.5 L 113.70608452448766 0.5 L 113.70608452448766 3.5 L 120.70608452448766 0 L 113.70608452448766 -3.5 L 113.70608452448766 -0.5 L 100.35890163724383 -0.5 Z"/><text text-anchor="middle" pointer-events="none" font-size="8px" fill="#000000" x="69.35304226224383" y="3" transform="rotate(180 69.35304226224383 0)" font-family="Helvetica Neue, Helvetica, Arial, sans-serif">DIRECTED_BY</text></g><g class="relationship" transform="translate(-570.7705522953441 -34.77343054754395) rotate(497.21698985262003)"><path class="b-outline" fill="#A5ABB6" stroke="none" d="M 25 0.5 L 36.68904540844993 0.5 L 36.68904540844993 -0.5 L 25 -0.5 Z M 98.70076415844993 0.5 L 110.38980956689986 0.5 L 110.38980956689986 3.5 L 117.38980956689986 0 L 110.38980956689986 -3.5 L 110.38980956689986 -0.5 L 98.70076415844993 -0.5 Z"/><text text-anchor="middle" pointer-events="none" font-size="8px" fill="#000000" x="67.69490478344993" y="3" transform="rotate(180 67.69490478344993 0)" font-family="Helvetica Neue, Helvetica, Arial, sans-serif">DIRECTED_BY</text></g><g class="relationship" transform="translate(-319.6704426874567 28.421806985242696) rotate(506.88645258100166)"><path class="b-outline" fill="#A5ABB6" stroke="none" d="M 25 0.5 L 36.466621233721824 0.5 L 36.466621233721824 -0.5 L 25 -0.5 Z M 98.47833998372182 0.5 L 109.94496121744365 0.5 L 109.94496121744365 3.5 L 116.94496121744365 0 L 109.94496121744365 -3.5 L 109.94496121744365 -0.5 L 98.47833998372182 -0.5 Z"/><text text-anchor="middle" pointer-events="none" font-size="8px" fill="#000000" x="67.47248060872182" y="3" transform="rotate(180 67.47248060872182 0)" font-family="Helvetica Neue, Helvetica, Arial, sans-serif">DIRECTED_BY</text></g><g class="relationship" transform="translate(-552.1607633545702 317.3226152182997) rotate(341.8689120611783)"><path class="b-outline" fill="#A5ABB6" stroke="none" d="M 25 0.5 L 37.404515120419404 0.5 L 37.404515120419404 -0.5 L 25 -0.5 Z M 99.4162338704194 0.5 L 111.82074899083881 0.5 L 111.82074899083881 3.5 L 118.82074899083881 0 L 111.82074899083881 -3.5 L 111.82074899083881 -0.5 L 99.4162338704194 -0.5 Z"/><text text-anchor="middle" pointer-events="none" font-size="8px" fill="#000000" x="68.4103744954194" y="3" font-family="Helvetica Neue, Helvetica, Arial, sans-serif">DIRECTED_BY</text></g><g class="relationship" transform="translate(-367.3639137751349 415.82906306368795) rotate(443.9465280249241)"><path class="b-outline" fill="#A5ABB6" stroke="none" d="M 25 0.5 L 35.95985999270198 0.5 L 35.95985999270198 -0.5 L 25 -0.5 Z M 97.97157874270198 0.5 L 108.93143873540396 0.5 L 108.93143873540396 3.5 L 115.93143873540396 0 L 108.93143873540396 -3.5 L 108.93143873540396 -0.5 L 97.97157874270198 -0.5 Z"/><text text-anchor="middle" pointer-events="none" font-size="8px" fill="#000000" x="66.96571936770198" y="3" font-family="Helvetica Neue, Helvetica, Arial, sans-serif">DIRECTED_BY</text></g><g class="relationship" transform="translate(-100.09486083177617 206.49606061990335) rotate(348.4409656072453)"><path class="b-outline" fill="#A5ABB6" stroke="none" d="M 25 0.5 L 37.96103387536468 0.5 L 37.96103387536468 -0.5 L 25 -0.5 Z M 99.97275262536468 0.5 L 112.93378650072935 0.5 L 112.93378650072935 3.5 L 119.93378650072935 0 L 112.93378650072935 -3.5 L 112.93378650072935 -0.5 L 99.97275262536468 -0.5 Z"/><text text-anchor="middle" pointer-events="none" font-size="8px" fill="#000000" x="68.96689325036468" y="3" font-family="Helvetica Neue, Helvetica, Arial, sans-serif">DIRECTED_BY</text></g><g class="relationship" transform="translate(241.0005094282253 445.6555230867902) rotate(456.3591000554701)"><path class="b-outline" fill="#A5ABB6" stroke="none" d="M 25 0.5 L 41.31562053302146 0.5 L 41.31562053302146 -0.5 L 25 -0.5 Z M 103.32733928302146 0.5 L 119.64295981604292 0.5 L 119.64295981604292 3.5 L 126.64295981604292 0 L 119.64295981604292 -3.5 L 119.64295981604292 -0.5 L 103.32733928302146 -0.5 Z"/><text text-anchor="middle" pointer-events="none" font-size="8px" fill="#000000" x="72.32147990802146" y="3" transform="rotate(180 72.32147990802146 0)" font-family="Helvetica Neue, Helvetica, Arial, sans-serif">DIRECTED_BY</text></g><g class="relationship" transform="translate(-225.93919541412916 620.4024148100374) rotate(206.97875816999476)"><path class="b-outline" fill="#A5ABB6" stroke="none" d="M 25 0.5 L 36.50297981965146 0.5 L 36.50297981965146 -0.5 L 25 -0.5 Z M 98.51469856965146 0.5 L 110.01767838930292 0.5 L 110.01767838930292 3.5 L 117.01767838930292 0 L 110.01767838930292 -3.5 L 110.01767838930292 -0.5 L 98.51469856965146 -0.5 Z"/><text text-anchor="middle" pointer-events="none" font-size="8px" fill="#000000" x="67.50883919465146" y="3" transform="rotate(180 67.50883919465146 0)" font-family="Helvetica Neue, Helvetica, Arial, sans-serif">DIRECTED_BY</text></g><g class="relationship" transform="translate(-42.129483874475795 -166.20796709688935) rotate(312.44774203243304)"><path class="b-outline" fill="#A5ABB6" stroke="none" d="M 25 0.5 L 39.96605953784865 0.5 L 39.96605953784865 -0.5 L 25 -0.5 Z M 101.97777828784865 0.5 L 116.9438378256973 0.5 L 116.9438378256973 3.5 L 123.9438378256973 0 L 116.9438378256973 -3.5 L 116.9438378256973 -0.5 L 101.97777828784865 -0.5 Z"/><text text-anchor="middle" pointer-events="none" font-size="8px" fill="#000000" x="70.97191891284865" y="3" font-family="Helvetica Neue, Helvetica, Arial, sans-serif">DIRECTED_BY</text></g><g class="relationship" transform="translate(138.15770063773002 -403.5189226681701) rotate(284.35093568719634)"><path class="b-outline" fill="#A5ABB6" stroke="none" d="M 25 0.5 L 41.51812709579035 0.5 L 41.51812709579035 -0.5 L 25 -0.5 Z M 103.52984584579035 0.5 L 120.0479729415807 0.5 L 120.0479729415807 3.5 L 127.0479729415807 0 L 120.0479729415807 -3.5 L 120.0479729415807 -0.5 L 103.52984584579035 -0.5 Z"/><text text-anchor="middle" pointer-events="none" font-size="8px" fill="#000000" x="72.52398647079035" y="3" font-family="Helvetica Neue, Helvetica, Arial, sans-serif">DIRECTED_BY</text></g><g class="relationship" transform="translate(180.66334956131166 118.27885334631088) rotate(516.9042142156733)"><path class="b-outline" fill="#A5ABB6" stroke="none" d="M 25 0.5 L 40.921550913970734 0.5 L 40.921550913970734 -0.5 L 25 -0.5 Z M 102.93326966397073 0.5 L 118.85482057794147 0.5 L 118.85482057794147 3.5 L 125.85482057794147 0 L 118.85482057794147 -3.5 L 118.85482057794147 -0.5 L 102.93326966397073 -0.5 Z"/><text text-anchor="middle" pointer-events="none" font-size="8px" fill="#000000" x="71.92741028897073" y="3" transform="rotate(180 71.92741028897073 0)" font-family="Helvetica Neue, Helvetica, Arial, sans-serif">DIRECTED_BY</text></g></g><g class="layer nodes"><g class="node" aria-label="graph-node0" transform="translate(-49.875188977696894,533.143627298178)"><circle class="b-outline" cx="0" cy="0" r="25" fill="#C990C0" stroke="#b261a5" stroke-width="2px"/><text class="caption" text-anchor="middle" pointer-events="none" x="0" y="0" font-size="10px" fill="#FFFFFF" font-family="Helvetica Neue, Helvetica, Arial, sans-serif"> William</text><text class="caption" text-anchor="middle" pointer-events="none" x="0" y="10" font-size="10px" fill="#FFFFFF" font-family="Helvetica Neue, Helvetica, Arial, sans-serif"> Smith</text></g><g class="node" aria-label="graph-node322" transform="translate(94.570525480434,555.0965118179795)"><circle class="b-outline" cx="0" cy="0" r="25" fill="#57C7E3" stroke="#23b3d7" stroke-width="2px"/><text class="caption" text-anchor="middle" pointer-events="none" x="0" y="0" font-size="10px" fill="#2A2C34" font-family="Helvetica Neue, Helvetica, Arial, sans-serif"> John</text><text class="caption" text-anchor="middle" pointer-events="none" x="0" y="10" font-size="10px" fill="#2A2C34" font-family="Helvetica Neue, Helvetica, Arial, sans-serif"> Milius</text></g><g class="node" aria-label="graph-node1" transform="translate(-42.129483874475795,-166.20796709688935)"><circle class="b-outline" cx="0" cy="0" r="25" fill="#C990C0" stroke="#b261a5" stroke-width="2px"/><text class="caption" text-anchor="middle" pointer-events="none" x="0" y="0" font-size="10px" fill="#FFFFFF" font-family="Helvetica Neue, Helvetica, Arial, sans-serif"> Roy</text><text class="caption" text-anchor="middle" pointer-events="none" x="0" y="10" font-size="10px" fill="#FFFFFF" font-family="Helvetica Neue, Helvetica, Arial, sans-serif"> Schei…</text></g><g class="node" aria-label="graph-node323" transform="translate(-61.082598898802395,-24.66235499239212)"><circle class="b-outline" cx="0" cy="0" r="25" fill="#57C7E3" stroke="#23b3d7" stroke-width="2px"/><text class="caption" text-anchor="middle" pointer-events="none" x="0" y="0" font-size="10px" fill="#2A2C34" font-family="Helvetica Neue, Helvetica, Arial, sans-serif"> Bob</text><text class="caption" text-anchor="middle" pointer-events="none" x="0" y="10" font-size="10px" fill="#2A2C34" font-family="Helvetica Neue, Helvetica, Arial, sans-serif"> Fosse</text></g><g class="node" aria-label="graph-node2" transform="translate(144.71906768830476,469.19694718369055)"><circle class="b-outline" cx="0" cy="0" r="25" fill="#C990C0" stroke="#b261a5" stroke-width="2px"/><text class="caption" text-anchor="middle" pointer-events="none" x="0" y="0" font-size="10px" fill="#FFFFFF" font-family="Helvetica Neue, Helvetica, Arial, sans-serif"> Ted</text><text class="caption" text-anchor="middle" pointer-events="none" x="0" y="10" font-size="10px" fill="#FFFFFF" font-family="Helvetica Neue, Helvetica, Arial, sans-serif"> Danson</text></g><g class="node" aria-label="graph-node324" transform="translate(296.6445849607426,528.1050357872895)"><circle class="b-outline" cx="0" cy="0" r="25" fill="#57C7E3" stroke="#23b3d7" stroke-width="2px"/><text class="caption" text-anchor="middle" pointer-events="none" x="0" y="0" font-size="10px" fill="#2A2C34" font-family="Helvetica Neue, Helvetica, Arial, sans-serif"> George A.</text><text class="caption" text-anchor="middle" pointer-events="none" x="0" y="10" font-size="10px" fill="#2A2C34" font-family="Helvetica Neue, Helvetica, Arial, sans-serif"> Romero</text></g><g class="node" aria-label="graph-node3" transform="translate(629.4800535187567,308.5385822457262)"><circle class="b-outline" cx="0" cy="0" r="25" fill="#C990C0" stroke="#b261a5" stroke-width="2px"/><text class="caption" text-anchor="middle" pointer-events="none" x="0" y="0" font-size="10px" fill="#FFFFFF" font-family="Helvetica Neue, Helvetica, Arial, sans-serif"> Michael</text><text class="caption" text-anchor="middle" pointer-events="none" x="0" y="10" font-size="10px" fill="#FFFFFF" font-family="Helvetica Neue, Helvetica, Arial, sans-serif"> Biehn</text></g><g class="node" aria-label="graph-node325" transform="translate(489.53148463771424,320.7800099480183)"><circle class="b-outline" cx="0" cy="0" r="25" fill="#57C7E3" stroke="#23b3d7" stroke-width="2px"/><text class="caption" text-anchor="middle" pointer-events="none" x="0" y="0" font-size="10px" fill="#2A2C34" font-family="Helvetica Neue, Helvetica, Arial, sans-serif"> James</text><text class="caption" text-anchor="middle" pointer-events="none" x="0" y="10" font-size="10px" fill="#2A2C34" font-family="Helvetica Neue, Helvetica, Arial, sans-serif"> Came…</text></g><g class="node" aria-label="graph-node4" transform="translate(241.0005094282253,445.6555230867902)"><circle class="b-outline" cx="0" cy="0" r="25" fill="#C990C0" stroke="#b261a5" stroke-width="2px"/><text class="caption" text-anchor="middle" pointer-events="none" x="0" y="0" font-size="10px" fill="#FFFFFF" font-family="Helvetica Neue, Helvetica, Arial, sans-serif"> Lea</text><text class="caption" text-anchor="middle" pointer-events="none" x="0" y="10" font-size="10px" fill="#FFFFFF" font-family="Helvetica Neue, Helvetica, Arial, sans-serif"> Thom…</text></g><g class="node" aria-label="graph-node5" transform="translate(180.66334956131166,118.27885334631088)"><circle class="b-outline" cx="0" cy="0" r="25" fill="#C990C0" stroke="#b261a5" stroke-width="2px"/><text class="caption" text-anchor="middle" pointer-events="none" x="0" y="0" font-size="10px" fill="#FFFFFF" font-family="Helvetica Neue, Helvetica, Arial, sans-serif"> Sylvester</text><text class="caption" text-anchor="middle" pointer-events="none" x="0" y="10" font-size="10px" fill="#FFFFFF" font-family="Helvetica Neue, Helvetica, Arial, sans-serif"> Stallone</text></g><g class="node" aria-label="graph-node326" transform="translate(293.1110482884426,210.45213440795277)"><circle class="b-outline" cx="0" cy="0" r="25" fill="#57C7E3" stroke="#23b3d7" stroke-width="2px"/><text class="caption" text-anchor="middle" pointer-events="none" x="0" y="0" font-size="10px" fill="#2A2C34" font-family="Helvetica Neue, Helvetica, Arial, sans-serif"> Peter</text><text class="caption" text-anchor="middle" pointer-events="none" x="0" y="10" font-size="10px" fill="#2A2C34" font-family="Helvetica Neue, Helvetica, Arial, sans-serif"> MacD…</text></g><g class="node" aria-label="graph-node6" transform="translate(648.8644883397257,27.091544506512616)"><circle class="b-outline" cx="0" cy="0" r="25" fill="#C990C0" stroke="#b261a5" stroke-width="2px"/><text class="caption" text-anchor="middle" pointer-events="none" x="0" y="0" font-size="10px" fill="#FFFFFF" font-family="Helvetica Neue, Helvetica, Arial, sans-serif"> Marlon</text><text class="caption" text-anchor="middle" pointer-events="none" x="0" y="10" font-size="10px" fill="#FFFFFF" font-family="Helvetica Neue, Helvetica, Arial, sans-serif"> Brando</text></g><g class="node" aria-label="graph-node327" transform="translate(655.1388951420594,-114.8244996380988)"><circle class="b-outline" cx="0" cy="0" r="25" fill="#57C7E3" stroke="#23b3d7" stroke-width="2px"/><text class="caption" text-anchor="middle" pointer-events="none" x="0" y="0" font-size="10px" fill="#2A2C34" font-family="Helvetica Neue, Helvetica, Arial, sans-serif"> Richard</text><text class="caption" text-anchor="middle" pointer-events="none" x="0" y="10" font-size="10px" fill="#2A2C34" font-family="Helvetica Neue, Helvetica, Arial, sans-serif"> Donner</text></g><g class="node" aria-label="graph-node328" transform="translate(327.6554073630106,101.68531437244903)"><circle class="b-outline" cx="0" cy="0" r="25" fill="#57C7E3" stroke="#23b3d7" stroke-width="2px"/><text class="caption" text-anchor="middle" pointer-events="none" x="0" y="0" font-size="10px" fill="#2A2C34" font-family="Helvetica Neue, Helvetica, Arial, sans-serif"> Andrey</text><text class="caption" text-anchor="middle" pointer-events="none" x="0" y="10" font-size="10px" fill="#2A2C34" font-family="Helvetica Neue, Helvetica, Arial, sans-serif"> Konch…</text></g><g class="node" aria-label="graph-node7" transform="translate(544.3013247770441,-278.29349911817496)"><circle class="b-outline" cx="0" cy="0" r="25" fill="#C990C0" stroke="#b261a5" stroke-width="2px"/><text class="caption" text-anchor="middle" pointer-events="none" x="0" y="0" font-size="10px" fill="#FFFFFF" font-family="Helvetica Neue, Helvetica, Arial, sans-serif"> James</text><text class="caption" text-anchor="middle" pointer-events="none" x="0" y="10" font-size="10px" fill="#FFFFFF" font-family="Helvetica Neue, Helvetica, Arial, sans-serif"> Mason</text></g><g class="node" aria-label="graph-node329" transform="translate(542.4128505092555,-421.0471783656619)"><circle class="b-outline" cx="0" cy="0" r="25" fill="#57C7E3" stroke="#23b3d7" stroke-width="2px"/><text class="caption" text-anchor="middle" pointer-events="none" x="0" y="0" font-size="10px" fill="#2A2C34" font-family="Helvetica Neue, Helvetica, Arial, sans-serif"> Stanley</text><text class="caption" text-anchor="middle" pointer-events="none" x="0" y="10" font-size="10px" fill="#2A2C34" font-family="Helvetica Neue, Helvetica, Arial, sans-serif"> Kubrick</text></g><g class="node" aria-label="graph-node8" transform="translate(348.3512275832759,-333.2127694743215)"><circle class="b-outline" cx="0" cy="0" r="25" fill="#C990C0" stroke="#b261a5" stroke-width="2px"/><text class="caption" text-anchor="middle" pointer-events="none" x="0" y="0" font-size="10px" fill="#FFFFFF" font-family="Helvetica Neue, Helvetica, Arial, sans-serif"> Margot</text><text class="caption" text-anchor="middle" pointer-events="none" x="0" y="10" font-size="10px" fill="#FFFFFF" font-family="Helvetica Neue, Helvetica, Arial, sans-serif"> Kidder</text></g><g class="node" aria-label="graph-node330" transform="translate(359.5308253145041,-477.0569233580314)"><circle class="b-outline" cx="0" cy="0" r="25" fill="#57C7E3" stroke="#23b3d7" stroke-width="2px"/><text class="caption" text-anchor="middle" pointer-events="none" x="0" y="0" font-size="10px" fill="#2A2C34" font-family="Helvetica Neue, Helvetica, Arial, sans-serif"> Richard</text><text class="caption" text-anchor="middle" pointer-events="none" x="0" y="10" font-size="10px" fill="#2A2C34" font-family="Helvetica Neue, Helvetica, Arial, sans-serif"> Lester</text></g><g class="node" aria-label="graph-node9" transform="translate(138.15770063773002,-403.5189226681701)"><circle class="b-outline" cx="0" cy="0" r="25" fill="#C990C0" stroke="#b261a5" stroke-width="2px"/><text class="caption" text-anchor="middle" pointer-events="none" x="0" y="0" font-size="10px" fill="#FFFFFF" font-family="Helvetica Neue, Helvetica, Arial, sans-serif"> Harrison</text><text class="caption" text-anchor="middle" pointer-events="none" x="0" y="10" font-size="10px" fill="#FFFFFF" font-family="Helvetica Neue, Helvetica, Arial, sans-serif"> Ford</text></g><g class="node" aria-label="graph-node331" transform="translate(58.395315144184984,-276.11261489899766)"><circle class="b-outline" cx="0" cy="0" r="25" fill="#57C7E3" stroke="#23b3d7" stroke-width="2px"/><text class="caption" text-anchor="middle" pointer-events="none" x="0" y="0" font-size="10px" fill="#2A2C34" font-family="Helvetica Neue, Helvetica, Arial, sans-serif"> Steven</text><text class="caption" text-anchor="middle" pointer-events="none" x="0" y="10" font-size="10px" fill="#2A2C34" font-family="Helvetica Neue, Helvetica, Arial, sans-serif"> Spielb…</text></g><g class="node" aria-label="graph-node10" transform="translate(34.371548664470126,-537.8908548819118)"><circle class="b-outline" cx="0" cy="0" r="25" fill="#C990C0" stroke="#b261a5" stroke-width="2px"/><text class="caption" text-anchor="middle" pointer-events="none" x="0" y="0" font-size="10px" fill="#FFFFFF" font-family="Helvetica Neue, Helvetica, Arial, sans-serif"> Nicolas</text><text class="caption" text-anchor="middle" pointer-events="none" x="0" y="10" font-size="10px" fill="#FFFFFF" font-family="Helvetica Neue, Helvetica, Arial, sans-serif"> Cage</text></g><g class="node" aria-label="graph-node332" transform="translate(175.84436679682224,-550.8223553147204)"><circle class="b-outline" cx="0" cy="0" r="25" fill="#57C7E3" stroke="#23b3d7" stroke-width="2px"/><text class="caption" text-anchor="middle" pointer-events="none" x="0" y="-5" font-size="10px" fill="#2A2C34" font-family="Helvetica Neue, Helvetica, Arial, sans-serif"> Francis</text><text class="caption" text-anchor="middle" pointer-events="none" x="0" y="5" font-size="10px" fill="#2A2C34" font-family="Helvetica Neue, Helvetica, Arial, sans-serif"> Ford</text><text class="caption" text-anchor="middle" pointer-events="none" x="0" y="15" font-size="10px" fill="#2A2C34" font-family="Helvetica Neue, Helvetica, Arial, sans-serif"> Cop…</text></g><g class="node" aria-label="graph-node333" transform="translate(280.8744561519293,9.379272914443163)"><circle class="b-outline" cx="0" cy="0" r="25" fill="#57C7E3" stroke="#23b3d7" stroke-width="2px"/><text class="caption" text-anchor="middle" pointer-events="none" x="0" y="0" font-size="10px" fill="#2A2C34" font-family="Helvetica Neue, Helvetica, Arial, sans-serif"> Ted</text><text class="caption" text-anchor="middle" pointer-events="none" x="0" y="10" font-size="10px" fill="#2A2C34" font-family="Helvetica Neue, Helvetica, Arial, sans-serif"> Kotcheff</text></g><g class="node" aria-label="graph-node11" transform="translate(-91.54868520298591,-653.5398500937354)"><circle class="b-outline" cx="0" cy="0" r="25" fill="#C990C0" stroke="#b261a5" stroke-width="2px"/><text class="caption" text-anchor="middle" pointer-events="none" x="0" y="0" font-size="10px" fill="#FFFFFF" font-family="Helvetica Neue, Helvetica, Arial, sans-serif"> Donatas</text><text class="caption" text-anchor="middle" pointer-events="none" x="0" y="10" font-size="10px" fill="#FFFFFF" font-family="Helvetica Neue, Helvetica, Arial, sans-serif"> Banio…</text></g><g class="node" aria-label="graph-node334" transform="translate(-234.21662377893145,-660.9659922968407)"><circle class="b-outline" cx="0" cy="0" r="25" fill="#57C7E3" stroke="#23b3d7" stroke-width="2px"/><text class="caption" text-anchor="middle" pointer-events="none" x="0" y="0" font-size="10px" fill="#2A2C34" font-family="Helvetica Neue, Helvetica, Arial, sans-serif"> Andrei</text><text class="caption" text-anchor="middle" pointer-events="none" x="0" y="10" font-size="10px" fill="#2A2C34" font-family="Helvetica Neue, Helvetica, Arial, sans-serif"> Tarkov…</text></g><g class="node" aria-label="graph-node12" transform="translate(-179.68335150604693,-317.1098841845776)"><circle class="b-outline" cx="0" cy="0" r="25" fill="#C990C0" stroke="#b261a5" stroke-width="2px"/><text class="caption" text-anchor="middle" pointer-events="none" x="0" y="0" font-size="10px" fill="#FFFFFF" font-family="Helvetica Neue, Helvetica, Arial, sans-serif"> Laurence</text><text class="caption" text-anchor="middle" pointer-events="none" x="0" y="10" font-size="10px" fill="#FFFFFF" font-family="Helvetica Neue, Helvetica, Arial, sans-serif"> Olivier</text></g><g class="node" aria-label="graph-node335" transform="translate(-238.48563171020243,-447.5687140549847)"><circle class="b-outline" cx="0" cy="0" r="25" fill="#57C7E3" stroke="#23b3d7" stroke-width="2px"/><text class="caption" text-anchor="middle" pointer-events="none" x="0" y="0" font-size="10px" fill="#2A2C34" font-family="Helvetica Neue, Helvetica, Arial, sans-serif"> Terence</text><text class="caption" text-anchor="middle" pointer-events="none" x="0" y="10" font-size="10px" fill="#2A2C34" font-family="Helvetica Neue, Helvetica, Arial, sans-serif"> Young</text></g><g class="node" aria-label="graph-node13" transform="translate(-442.3429920730082,-424.8644415610946)"><circle class="b-outline" cx="0" cy="0" r="25" fill="#C990C0" stroke="#b261a5" stroke-width="2px"/><text class="caption" text-anchor="middle" pointer-events="none" x="0" y="0" font-size="10px" fill="#FFFFFF" font-family="Helvetica Neue, Helvetica, Arial, sans-serif"> Lucille</text><text class="caption" text-anchor="middle" pointer-events="none" x="0" y="10" font-size="10px" fill="#FFFFFF" font-family="Helvetica Neue, Helvetica, Arial, sans-serif"> Ball</text></g><g class="node" aria-label="graph-node336" transform="translate(-368.1422518160839,-300.681458263905)"><circle class="b-outline" cx="0" cy="0" r="25" fill="#57C7E3" stroke="#23b3d7" stroke-width="2px"/><text class="caption" text-anchor="middle" pointer-events="none" x="0" y="0" font-size="10px" fill="#2A2C34" font-family="Helvetica Neue, Helvetica, Arial, sans-serif"> Melville</text><text class="caption" text-anchor="middle" pointer-events="none" x="0" y="10" font-size="10px" fill="#2A2C34" font-family="Helvetica Neue, Helvetica, Arial, sans-serif"> Shave…</text></g><g class="node" aria-label="graph-node14" transform="translate(-516.2597672512159,-226.70451112220954)"><circle class="b-outline" cx="0" cy="0" r="25" fill="#C990C0" stroke="#b261a5" stroke-width="2px"/><text class="caption" text-anchor="middle" pointer-events="none" x="0" y="0" font-size="10px" fill="#FFFFFF" font-family="Helvetica Neue, Helvetica, Arial, sans-serif"> Virginia</text><text class="caption" text-anchor="middle" pointer-events="none" x="0" y="10" font-size="10px" fill="#FFFFFF" font-family="Helvetica Neue, Helvetica, Arial, sans-serif"> Madsen</text></g><g class="node" aria-label="graph-node337" transform="translate(-656.6812995179937,-246.4523415454379)"><circle class="b-outline" cx="0" cy="0" r="25" fill="#57C7E3" stroke="#23b3d7" stroke-width="2px"/><text class="caption" text-anchor="middle" pointer-events="none" x="0" y="0" font-size="10px" fill="#2A2C34" font-family="Helvetica Neue, Helvetica, Arial, sans-serif"> David</text><text class="caption" text-anchor="middle" pointer-events="none" x="0" y="10" font-size="10px" fill="#2A2C34" font-family="Helvetica Neue, Helvetica, Arial, sans-serif"> Lynch</text></g><g class="node" aria-label="graph-node338" transform="translate(174.19129859103725,-27.283420693686555)"><circle class="b-outline" cx="0" cy="0" r="25" fill="#57C7E3" stroke="#23b3d7" stroke-width="2px"/><text class="caption" text-anchor="middle" pointer-events="none" x="0" y="-5" font-size="10px" fill="#2A2C34" font-family="Helvetica Neue, Helvetica, Arial, sans-serif"> George</text><text class="caption" text-anchor="middle" pointer-events="none" x="0" y="5" font-size="10px" fill="#2A2C34" font-family="Helvetica Neue, Helvetica, Arial, sans-serif"> P.</text><text class="caption" text-anchor="middle" pointer-events="none" x="0" y="15" font-size="10px" fill="#2A2C34" font-family="Helvetica Neue, Helvetica, Arial, sans-serif"> Cos…</text></g><g class="node" aria-label="graph-node15" transform="translate(-570.7705522953441,-34.77343054754395)"><circle class="b-outline" cx="0" cy="0" r="25" fill="#C990C0" stroke="#b261a5" stroke-width="2px"/><text class="caption" text-anchor="middle" pointer-events="none" x="0" y="5" font-size="10px" fill="#FFFFFF" font-family="Helvetica Neue, Helvetica, Arial, sans-serif"> Mel Blanc</text></g><g class="node" aria-label="graph-node339" transform="translate(-675.2748912206769,61.94110307733163)"><circle class="b-outline" cx="0" cy="0" r="25" fill="#57C7E3" stroke="#23b3d7" stroke-width="2px"/><text class="caption" text-anchor="middle" pointer-events="none" x="0" y="0" font-size="10px" fill="#2A2C34" font-family="Helvetica Neue, Helvetica, Arial, sans-serif"> Norman</text><text class="caption" text-anchor="middle" pointer-events="none" x="0" y="10" font-size="10px" fill="#2A2C34" font-family="Helvetica Neue, Helvetica, Arial, sans-serif"> Fergu…</text></g><g class="node" aria-label="graph-node16" transform="translate(-319.6704426874567,28.421806985242696)"><circle class="b-outline" cx="0" cy="0" r="25" fill="#C990C0" stroke="#b261a5" stroke-width="2px"/><text class="caption" text-anchor="middle" pointer-events="none" x="0" y="0" font-size="10px" fill="#FFFFFF" font-family="Helvetica Neue, Helvetica, Arial, sans-serif"> Jeff</text><text class="caption" text-anchor="middle" pointer-events="none" x="0" y="10" font-size="10px" fill="#FFFFFF" font-family="Helvetica Neue, Helvetica, Arial, sans-serif"> Bridges</text></g><g class="node" aria-label="graph-node340" transform="translate(-438.56206157495615,105.96634240413069)"><circle class="b-outline" cx="0" cy="0" r="25" fill="#57C7E3" stroke="#23b3d7" stroke-width="2px"/><text class="caption" text-anchor="middle" pointer-events="none" x="0" y="0" font-size="10px" fill="#2A2C34" font-family="Helvetica Neue, Helvetica, Arial, sans-serif"> Michael</text><text class="caption" text-anchor="middle" pointer-events="none" x="0" y="10" font-size="10px" fill="#2A2C34" font-family="Helvetica Neue, Helvetica, Arial, sans-serif"> Cimino</text></g><g class="node" aria-label="graph-node17" transform="translate(-552.1607633545702,317.3226152182997)"><circle class="b-outline" cx="0" cy="0" r="25" fill="#C990C0" stroke="#b261a5" stroke-width="2px"/><text class="caption" text-anchor="middle" pointer-events="none" x="0" y="0" font-size="10px" fill="#FFFFFF" font-family="Helvetica Neue, Helvetica, Arial, sans-serif"> Martin</text><text class="caption" text-anchor="middle" pointer-events="none" x="0" y="10" font-size="10px" fill="#FFFFFF" font-family="Helvetica Neue, Helvetica, Arial, sans-serif"> Landau</text></g><g class="node" aria-label="graph-node341" transform="translate(-415.4811427397099,272.5667312602801)"><circle class="b-outline" cx="0" cy="0" r="25" fill="#57C7E3" stroke="#23b3d7" stroke-width="2px"/><text class="caption" text-anchor="middle" pointer-events="none" x="0" y="-5" font-size="10px" fill="#2A2C34" font-family="Helvetica Neue, Helvetica, Arial, sans-serif"> Joseph</text><text class="caption" text-anchor="middle" pointer-events="none" x="0" y="5" font-size="10px" fill="#2A2C34" font-family="Helvetica Neue, Helvetica, Arial, sans-serif"> L.</text><text class="caption" text-anchor="middle" pointer-events="none" x="0" y="15" font-size="10px" fill="#2A2C34" font-family="Helvetica Neue, Helvetica, Arial, sans-serif"> Man…</text></g><g class="node" aria-label="graph-node18" transform="translate(-367.3639137751349,415.82906306368795)"><circle class="b-outline" cx="0" cy="0" r="25" fill="#C990C0" stroke="#b261a5" stroke-width="2px"/><text class="caption" text-anchor="middle" pointer-events="none" x="0" y="0" font-size="10px" fill="#FFFFFF" font-family="Helvetica Neue, Helvetica, Arial, sans-serif"> Robert</text><text class="caption" text-anchor="middle" pointer-events="none" x="0" y="10" font-size="10px" fill="#FFFFFF" font-family="Helvetica Neue, Helvetica, Arial, sans-serif"> Davi</text></g><g class="node" aria-label="graph-node342" transform="translate(-352.5017680457543,555.9746553894888)"><circle class="b-outline" cx="0" cy="0" r="25" fill="#57C7E3" stroke="#23b3d7" stroke-width="2px"/><text class="caption" text-anchor="middle" pointer-events="none" x="0" y="5" font-size="10px" fill="#2A2C34" font-family="Helvetica Neue, Helvetica, Arial, sans-serif"> John Glen</text></g><g class="node" aria-label="graph-node19" transform="translate(-100.09486083177617,206.49606061990335)"><circle class="b-outline" cx="0" cy="0" r="25" fill="#C990C0" stroke="#b261a5" stroke-width="2px"/><text class="caption" text-anchor="middle" pointer-events="none" x="0" y="0" font-size="10px" fill="#FFFFFF" font-family="Helvetica Neue, Helvetica, Arial, sans-serif"> Martin</text><text class="caption" text-anchor="middle" pointer-events="none" x="0" y="10" font-size="10px" fill="#FFFFFF" font-family="Helvetica Neue, Helvetica, Arial, sans-serif"> Kove</text></g><g class="node" aria-label="graph-node343" transform="translate(41.8994897534141,177.454592486748)"><circle class="b-outline" cx="0" cy="0" r="25" fill="#57C7E3" stroke="#23b3d7" stroke-width="2px"/><text class="caption" text-anchor="middle" pointer-events="none" x="0" y="0" font-size="10px" fill="#2A2C34" font-family="Helvetica Neue, Helvetica, Arial, sans-serif"> John G.</text><text class="caption" text-anchor="middle" pointer-events="none" x="0" y="10" font-size="10px" fill="#2A2C34" font-family="Helvetica Neue, Helvetica, Arial, sans-serif"> Avilds…</text></g><g class="node" aria-label="graph-node344" transform="translate(224.20460891708152,596.365459679537)"><circle class="b-outline" cx="0" cy="0" r="25" fill="#57C7E3" stroke="#23b3d7" stroke-width="2px"/><text class="caption" text-anchor="middle" pointer-events="none" x="0" y="0" font-size="10px" fill="#2A2C34" font-family="Helvetica Neue, Helvetica, Arial, sans-serif"> Robert</text><text class="caption" text-anchor="middle" pointer-events="none" x="0" y="10" font-size="10px" fill="#2A2C34" font-family="Helvetica Neue, Helvetica, Arial, sans-serif"> Zeme…</text></g><g class="node" aria-label="graph-node20" transform="translate(-225.93919541412916,620.4024148100374)"><circle class="b-outline" cx="0" cy="0" r="25" fill="#C990C0" stroke="#b261a5" stroke-width="2px"/><text class="caption" text-anchor="middle" pointer-events="none" x="0" y="0" font-size="10px" fill="#FFFFFF" font-family="Helvetica Neue, Helvetica, Arial, sans-serif"> Joe Don</text><text class="caption" text-anchor="middle" pointer-events="none" x="0" y="10" font-size="10px" fill="#FFFFFF" font-family="Helvetica Neue, Helvetica, Arial, sans-serif"> Baker</text></g></g></svg>